<?xml version="1.0" encoding="utf-8"?>
<!-- Generator: Adobe Illustrator 16.0.0, SVG Export Plug-In . SVG Version: 6.00 Build 0)  -->
<!DOCTYPE svg PUBLIC "-//W3C//DTD SVG 1.1//EN" "http://www.w3.org/Graphics/SVG/1.1/DTD/svg11.dtd">
<svg version="1.1" xmlns="http://www.w3.org/2000/svg" xmlns:xlink="http://www.w3.org/1999/xlink" x="0px" y="0px" width="1265px"
	 height="240px" viewBox="0 0 1265 240" enable-background="new 0 0 1265 240" xml:space="preserve">
<!-- PT Sans -->
<g id="Philip_Da_Silva">
	<g>
		<path fill="#FFFFFF" d="M336.114,59.84c4.078-0.966,8.478-1.61,13.202-1.932c4.722-0.322,9.391-0.483,14.007-0.483
			c4.936,0,9.954,0.483,15.053,1.449c5.097,0.966,9.741,2.737,13.927,5.313c4.186,2.576,7.592,6.118,10.224,10.626
			c2.629,4.508,3.944,10.251,3.944,17.227c0,6.87-1.235,12.666-3.703,17.388c-2.47,4.725-5.743,8.561-9.821,11.511
			c-4.081,2.954-8.75,5.072-14.007,6.36c-5.26,1.287-10.682,1.932-16.261,1.932c-0.539,0-1.424,0-2.657,0
			c-1.235,0-2.523-0.025-3.864-0.081c-1.343-0.053-2.656-0.133-3.944-0.241c-1.288-0.105-2.201-0.214-2.737-0.322v42.826h-13.363
			V59.84z M363.645,69.018c-2.792,0-5.474,0.055-8.05,0.161c-2.576,0.108-4.616,0.377-6.118,0.805v46.69
			c0.536,0.216,1.394,0.35,2.576,0.402c1.18,0.056,2.415,0.108,3.703,0.161c1.288,0.055,2.521,0.081,3.703,0.081
			c1.18,0,2.038,0,2.576,0c3.647,0,7.27-0.347,10.868-1.046c3.595-0.697,6.842-1.958,9.74-3.784c2.898-1.824,5.232-4.4,7.003-7.728
			c1.771-3.326,2.657-7.567,2.657-12.719c0-4.4-0.833-8.075-2.496-11.029c-1.665-2.951-3.864-5.313-6.601-7.084
			c-2.737-1.771-5.824-3.031-9.257-3.783C370.512,69.395,367.079,69.018,363.645,69.018z"/>
		<path fill="#FFFFFF" d="M472.479,171.413v-45.885c0-4.186-0.241-7.861-0.724-11.028c-0.483-3.165-1.369-5.796-2.657-7.889
			c-1.288-2.093-3.034-3.675-5.232-4.75c-2.201-1.072-5.072-1.61-8.614-1.61c-5.046,0-9.607,1.638-13.685,4.911
			c-4.081,3.275-6.709,7.486-7.889,12.638v53.613h-12.88v-112.7h12.88v41.216h0.644c2.79-3.326,6.143-5.982,10.062-7.969
			c3.917-1.985,8.774-2.979,14.57-2.979c4.508,0,8.425,0.511,11.753,1.529c3.326,1.021,6.09,2.818,8.292,5.394
			c2.199,2.576,3.809,6.038,4.83,10.385c1.019,4.347,1.53,9.849,1.53,16.502v48.622H472.479z"/>
		<path fill="#FFFFFF" d="M504.84,66.441c0-2.468,0.83-4.588,2.495-6.359c1.663-1.771,3.784-2.657,6.36-2.657
			c2.576,0,4.774,0.886,6.601,2.657c1.824,1.771,2.737,3.892,2.737,6.359c0,2.47-0.913,4.508-2.737,6.118
			c-1.827,1.61-4.025,2.415-6.601,2.415c-2.576,0-4.697-0.805-6.36-2.415C505.67,70.949,504.84,68.912,504.84,66.441z
			 M507.577,90.914h12.88v80.5h-12.88V90.914z"/>
		<path fill="#FFFFFF" d="M558.29,151.61c0,3.759,0.644,6.44,1.932,8.05c1.288,1.61,3.112,2.415,5.474,2.415
			c1.394,0,2.898-0.105,4.508-0.322c1.61-0.214,3.434-0.696,5.474-1.448l1.449,10.143c-1.718,0.86-4.105,1.555-7.165,2.093
			c-3.059,0.536-5.715,0.806-7.969,0.806c-4.83,0-8.802-1.369-11.914-4.105c-3.114-2.737-4.669-7.379-4.669-13.927v-96.6h12.88
			V151.61z"/>
		<path fill="#FFFFFF" d="M586.947,66.441c0-2.468,0.83-4.588,2.496-6.359c1.663-1.771,3.783-2.657,6.359-2.657
			s4.775,0.886,6.601,2.657c1.824,1.771,2.737,3.892,2.737,6.359c0,2.47-0.913,4.508-2.737,6.118
			c-1.826,1.61-4.025,2.415-6.601,2.415s-4.697-0.805-6.359-2.415C587.777,70.949,586.947,68.912,586.947,66.441z M589.684,90.914
			h12.88v80.5h-12.88V90.914z"/>
		<path fill="#FFFFFF" d="M626.068,90.914h8.854l2.415,9.66h0.645c2.468-3.756,5.66-6.626,9.579-8.613
			c3.917-1.985,8.397-2.979,13.443-2.979c10.732,0,18.729,3.167,23.989,9.499c5.258,6.334,7.889,16.691,7.889,31.073
			c0,6.762-0.885,12.854-2.656,18.273c-1.771,5.421-4.267,10.01-7.486,13.766c-3.22,3.758-7.111,6.656-11.673,8.693
			c-4.562,2.038-9.635,3.06-15.214,3.06c-3.973,0-7.112-0.242-9.419-0.725c-2.31-0.483-4.805-1.313-7.486-2.496v33.488h-12.88
			V90.914z M658.59,100.251c-5.474,0-9.795,1.424-12.96,4.267c-3.167,2.845-5.394,7.165-6.682,12.96v39.928
			c1.932,1.505,4.131,2.656,6.601,3.462c2.469,0.805,5.741,1.207,9.821,1.207c7.406,0,13.282-2.762,17.63-8.291
			c4.347-5.527,6.521-13.657,6.521-24.392c0-4.4-0.378-8.397-1.127-11.995c-0.753-3.595-1.96-6.654-3.623-9.177
			c-1.665-2.521-3.811-4.48-6.439-5.876C665.699,100.951,662.454,100.251,658.59,100.251z"/>
		<path fill="#FFFFFF" d="M749.392,58.713c2.038-0.322,4.319-0.563,6.843-0.725c2.521-0.161,5.151-0.267,7.889-0.322
			c2.737-0.053,5.419-0.106,8.05-0.161c2.629-0.053,5.071-0.081,7.326-0.081c9.016,0,16.824,1.396,23.425,4.186
			c6.602,2.792,12.048,6.682,16.342,11.672c4.292,4.991,7.486,10.976,9.579,17.952c2.094,6.979,3.14,14.651,3.14,23.023
			c0,7.623-0.993,14.948-2.979,21.977c-1.987,7.03-5.127,13.257-9.418,18.676c-4.295,5.421-9.877,9.768-16.744,13.041
			c-6.87,3.275-15.189,4.91-24.955,4.91c-1.719,0-3.944-0.027-6.682-0.08c-2.737-0.056-5.555-0.161-8.452-0.322
			c-2.898-0.161-5.582-0.297-8.051-0.402c-2.47-0.108-4.241-0.27-5.312-0.483V58.713z M779.82,69.339c-1.396,0-2.926,0-4.588,0
			c-1.666,0-3.301,0.055-4.911,0.161c-1.609,0.108-3.086,0.216-4.427,0.322c-1.344,0.108-2.391,0.216-3.14,0.322v90.16
			c0.535,0.107,1.555,0.188,3.059,0.241c1.502,0.056,3.06,0.108,4.669,0.161c1.61,0.056,3.165,0.108,4.669,0.161
			c1.502,0.055,2.521,0.08,3.06,0.08c7.512,0,13.818-1.288,18.917-3.864c5.097-2.575,9.177-6.037,12.236-10.384
			c3.059-4.348,5.232-9.338,6.521-14.974c1.288-5.635,1.932-11.456,1.932-17.468c0-5.258-0.591-10.545-1.771-15.858
			c-1.183-5.313-3.221-10.115-6.118-14.41c-2.898-4.292-6.79-7.809-11.673-10.545C793.37,70.708,787.227,69.339,779.82,69.339z"/>
		<path fill="#FFFFFF" d="M848.083,96.871c4.078-2.468,8.827-4.292,14.249-5.474c5.418-1.18,11.081-1.771,16.985-1.771
			c5.579,0,10.062,0.752,13.443,2.254c3.381,1.504,5.957,3.461,7.728,5.876c1.771,2.415,2.951,5.071,3.543,7.97
			c0.588,2.898,0.885,5.796,0.885,8.694c0,6.44-0.161,12.719-0.482,18.837c-0.322,6.117-0.483,11.913-0.483,17.388
			c0,3.972,0.161,7.728,0.483,11.27c0.321,3.542,0.91,6.817,1.771,9.821h-9.499l-3.381-11.27h-0.805
			c-0.967,1.504-2.174,2.979-3.623,4.427c-1.449,1.449-3.194,2.737-5.232,3.864c-2.04,1.127-4.402,2.068-7.084,2.817
			c-2.684,0.75-5.743,1.127-9.177,1.127c-3.437,0-6.629-0.538-9.579-1.609c-2.954-1.072-5.502-2.602-7.648-4.589
			c-2.147-1.985-3.838-4.372-5.071-7.165c-1.235-2.789-1.852-5.956-1.852-9.498c0-4.723,0.966-8.667,2.898-11.834
			c1.932-3.165,4.642-5.688,8.13-7.567c3.487-1.876,7.673-3.22,12.559-4.024c4.883-0.806,10.276-1.208,16.181-1.208
			c1.502,0,2.979,0,4.427,0c1.449,0,2.924,0.108,4.428,0.322c0.322-3.22,0.483-6.118,0.483-8.694c0-5.902-1.183-10.035-3.542-12.397
			c-2.362-2.36-6.656-3.542-12.88-3.542c-1.826,0-3.784,0.138-5.877,0.415s-4.241,0.662-6.439,1.16
			c-2.201,0.498-4.295,1.104-6.279,1.821c-1.987,0.717-3.73,1.517-5.232,2.4L848.083,96.871z M870.945,161.432
			c3.004,0,5.688-0.402,8.05-1.208c2.359-0.805,4.4-1.823,6.118-3.059c1.716-1.232,3.14-2.602,4.267-4.105
			c1.127-1.502,1.957-2.951,2.495-4.348V135.35c-1.504-0.105-3.033-0.187-4.588-0.242c-1.558-0.053-3.087-0.08-4.589-0.08
			c-3.328,0-6.576,0.188-9.74,0.563c-3.167,0.377-5.957,1.074-8.372,2.093c-2.415,1.021-4.348,2.415-5.796,4.187
			c-1.449,1.771-2.174,4-2.174,6.682c0,3.758,1.341,6.842,4.025,9.257C863.323,160.224,866.759,161.432,870.945,161.432z"/>
		<path fill="#FFFFFF" d="M1016.326,142.756c0-4.509-1.344-8.184-4.025-11.029c-2.684-2.843-6.037-5.365-10.062-7.566
			c-4.025-2.199-8.399-4.267-13.121-6.199c-4.725-1.932-9.097-4.267-13.122-7.003c-4.024-2.737-7.381-6.118-10.062-10.143
			c-2.684-4.025-4.024-9.149-4.024-15.375c0-8.8,3.059-15.778,9.177-20.93s14.812-7.728,26.082-7.728
			c6.546,0,12.503,0.483,17.871,1.449c5.365,0.966,9.552,2.201,12.558,3.703l-4.024,11.914c-2.471-1.217-6.093-2.382-10.868-3.489
			c-4.777-1.107-10.17-1.663-16.181-1.663c-7.084,0-12.396,1.585-15.938,4.75c-3.542,3.167-5.313,6.898-5.313,11.189
			c0,4.186,1.341,7.675,4.025,10.465c2.682,2.792,6.037,5.288,10.062,7.486c4.025,2.201,8.397,4.375,13.121,6.521
			c4.723,2.148,9.097,4.644,13.122,7.486c4.024,2.845,7.378,6.254,10.062,10.224c2.682,3.972,4.024,8.91,4.024,14.812
			c0,4.83-0.86,9.178-2.575,13.041c-1.719,3.864-4.242,7.192-7.567,9.982c-3.328,2.792-7.354,4.938-12.075,6.44
			c-4.725,1.501-10.09,2.254-16.1,2.254c-8.05,0-14.707-0.619-19.964-1.852c-5.261-1.233-9.338-2.602-12.236-4.105l4.508-11.914
			c2.468,1.358,6.118,2.691,10.948,3.997c4.83,1.309,10.249,1.96,16.261,1.96c3.542,0,6.868-0.348,9.982-1.047
			c3.111-0.696,5.796-1.823,8.05-3.381c2.254-1.555,4.05-3.515,5.394-5.877C1015.654,148.768,1016.326,145.976,1016.326,142.756z"/>
		<path fill="#FFFFFF" d="M1045.626,66.441c0-2.468,0.831-4.588,2.496-6.359c1.663-1.771,3.783-2.657,6.359-2.657
			s4.774,0.886,6.601,2.657c1.824,1.771,2.737,3.892,2.737,6.359c0,2.47-0.913,4.508-2.737,6.118
			c-1.826,1.61-4.024,2.415-6.601,2.415s-4.696-0.805-6.359-2.415C1046.457,70.949,1045.626,68.912,1045.626,66.441z
			 M1048.363,90.914h12.88v80.5h-12.88V90.914z"/>
		<path fill="#FFFFFF" d="M1099.077,151.61c0,3.759,0.644,6.44,1.932,8.05c1.288,1.61,3.112,2.415,5.474,2.415
			c1.395,0,2.898-0.105,4.509-0.322c1.609-0.214,3.434-0.696,5.474-1.448l1.449,10.143c-1.719,0.86-4.105,1.555-7.165,2.093
			c-3.059,0.536-5.715,0.806-7.969,0.806c-4.83,0-8.803-1.369-11.914-4.105c-3.114-2.737-4.669-7.379-4.669-13.927v-96.6h12.88
			V151.61z"/>
		<path fill="#FFFFFF" d="M1150.918,138.086l4.508,15.296h0.161l4.024-15.617l18.032-46.851h13.846l-34.293,82.271h-5.474
			l-34.938-82.271h14.812L1150.918,138.086z"/>
		<path fill="#FFFFFF" d="M1200.021,96.871c4.078-2.468,8.827-4.292,14.249-5.474c5.418-1.18,11.081-1.771,16.985-1.771
			c5.579,0,10.062,0.752,13.443,2.254c3.381,1.504,5.957,3.461,7.728,5.876c1.771,2.415,2.951,5.071,3.542,7.97
			c0.589,2.898,0.886,5.796,0.886,8.694c0,6.44-0.161,12.719-0.482,18.837c-0.322,6.117-0.483,11.913-0.483,17.388
			c0,3.972,0.161,7.728,0.483,11.27c0.321,3.542,0.91,6.817,1.771,9.821h-9.499l-3.381-11.27h-0.805
			c-0.967,1.504-2.174,2.979-3.623,4.427c-1.449,1.449-3.194,2.737-5.232,3.864c-2.04,1.127-4.402,2.068-7.084,2.817
			c-2.685,0.75-5.743,1.127-9.177,1.127c-3.437,0-6.629-0.538-9.58-1.609c-2.953-1.072-5.501-2.602-7.647-4.589
			c-2.147-1.985-3.839-4.372-5.071-7.165c-1.235-2.789-1.852-5.956-1.852-9.498c0-4.723,0.966-8.667,2.898-11.834
			c1.932-3.165,4.641-5.688,8.13-7.567c3.487-1.876,7.673-3.22,12.559-4.024c4.883-0.806,10.276-1.208,16.181-1.208
			c1.502,0,2.979,0,4.427,0c1.449,0,2.924,0.108,4.428,0.322c0.322-3.22,0.483-6.118,0.483-8.694c0-5.902-1.183-10.035-3.542-12.397
			c-2.362-2.36-6.656-3.542-12.88-3.542c-1.826,0-3.784,0.138-5.877,0.415s-4.241,0.662-6.439,1.16
			c-2.201,0.498-4.295,1.104-6.279,1.821c-1.987,0.717-3.73,1.517-5.232,2.4L1200.021,96.871z M1222.884,161.432
			c3.004,0,5.688-0.402,8.05-1.208c2.359-0.805,4.4-1.823,6.118-3.059c1.716-1.232,3.14-2.602,4.267-4.105
			c1.127-1.502,1.957-2.951,2.495-4.348V135.35c-1.504-0.105-3.033-0.187-4.588-0.242c-1.558-0.053-3.087-0.08-4.589-0.08
			c-3.328,0-6.576,0.188-9.74,0.563c-3.168,0.377-5.957,1.074-8.372,2.093c-2.415,1.021-4.348,2.415-5.796,4.187
			c-1.449,1.771-2.174,4-2.174,6.682c0,3.758,1.341,6.842,4.025,9.257C1215.262,160.224,1218.697,161.432,1222.884,161.432z"/>
	</g>
</g>
<g id="Shape_1_1_" opacity="0.2" enable-background="new    ">
	<g id="Shape_1">
		<g>
			<circle cx="119.933" cy="119.514" r="119.691"/>
		</g>
	</g>
</g>
<g id="pd">
	<g>
		<path fill="#FFFFFF" d="M73.947,180.883H47.017v-59.909c0-10.993,2.88-19.946,8.641-26.859c3.312-3.984,7.525-7.152,12.637-9.505
			c5.113-2.352,10.357-3.528,15.733-3.528c10.705,0,19.73,3.601,27.075,10.801s11.017,16.034,11.017,26.499
			c0,10.177-3.649,18.962-10.945,26.354c-7.298,7.394-15.938,11.089-25.923,11.089c-1.632,0-4.032-0.168-7.201-0.504v-29.667
			c2.208,1.777,4.416,2.665,6.625,2.665c2.783,0,5.172-1.032,7.165-3.097c1.991-2.063,2.988-4.512,2.988-7.345
			c0-2.832-1.033-5.244-3.096-7.236c-2.065-1.992-4.537-2.988-7.417-2.988c-6.913,0-10.369,4.777-10.369,14.329V180.883z"/>
		<path fill="#FFFFFF" d="M163.394,56.023h26.93v59.837c0,10.994-2.88,19.946-8.641,26.859c-3.312,3.984-7.525,7.153-12.637,9.505
			s-10.358,3.528-15.733,3.528c-10.706,0-19.73-3.601-27.075-10.802c-7.345-7.2-11.017-16.032-11.017-26.498
			c0-10.128,3.648-18.89,10.945-26.283c7.296-7.392,15.937-11.089,25.922-11.089c1.584,0,3.984,0.144,7.201,0.432v29.667
			c-2.208-1.729-4.417-2.592-6.625-2.592c-2.785,0-5.173,1.021-7.165,3.06c-1.992,2.041-2.988,4.5-2.988,7.381
			c0,2.784,1.032,5.173,3.097,7.165c2.063,1.992,4.536,2.988,7.417,2.988c6.913,0,10.369-4.776,10.369-14.33V56.023z"/>
	</g>
</g>
</svg>
