<?xml version="1.0" encoding="utf-8"?>
<!-- Generator: Adobe Illustrator 16.0.0, SVG Export Plug-In . SVG Version: 6.00 Build 0)  -->
<!DOCTYPE svg PUBLIC "-//W3C//DTD SVG 1.1//EN" "http://www.w3.org/Graphics/SVG/1.1/DTD/svg11.dtd">
<svg version="1.1" xmlns="http://www.w3.org/2000/svg" xmlns:xlink="http://www.w3.org/1999/xlink" x="0px" y="0px" width="128px"
	 height="128px" viewBox="0 0 128 128" enable-background="new 0 0 128 128" xml:space="preserve">
<g id="Shape_1_1_" enable-background="new    ">
	<g id="Shape_1">
		<g>
			<circle fill="#484848" cx="63.964" cy="63.741" r="63.835"/>
		</g>
	</g>
</g>
<g id="pd">
	<g>
		<path fill="#FFFFFF" d="M39.438,96.47H25.075V64.518c0-5.862,1.536-10.637,4.608-14.324c1.767-2.125,4.013-3.814,6.74-5.069
			c2.727-1.254,5.523-1.882,8.391-1.882c5.709,0,10.522,1.92,14.44,5.761c3.917,3.84,5.877,8.551,5.877,14.132
			c0,5.428-1.947,10.114-5.839,14.056s-8.5,5.914-13.825,5.914c-0.871,0-2.15-0.09-3.84-0.269V67.015
			c1.177,0.947,2.355,1.421,3.533,1.421c1.484,0,2.758-0.551,3.821-1.651c1.062-1.101,1.594-2.406,1.594-3.917
			c0-1.51-0.551-2.797-1.651-3.86c-1.101-1.062-2.419-1.594-3.956-1.594c-3.687,0-5.53,2.548-5.53,7.643V96.47z"/>
		<path fill="#FFFFFF" d="M87.143,29.878h14.363v31.914c0,5.863-1.537,10.637-4.609,14.325c-1.766,2.125-4.014,3.814-6.74,5.069
			c-2.727,1.254-5.523,1.882-8.391,1.882c-5.709,0-10.521-1.921-14.439-5.761c-3.917-3.841-5.876-8.551-5.876-14.133
			c0-5.402,1.945-10.074,5.837-14.017c3.893-3.942,8.5-5.915,13.826-5.915c0.844,0,2.125,0.077,3.84,0.23v15.822
			c-1.178-0.921-2.355-1.382-3.533-1.382c-1.484,0-2.76,0.544-3.82,1.632c-1.062,1.088-1.594,2.4-1.594,3.936
			c0,1.485,0.549,2.759,1.65,3.821c1.102,1.063,2.42,1.594,3.955,1.594c3.688,0,5.531-2.547,5.531-7.642V29.878z"/>
	</g>
</g>
</svg>
